<svg width="20" height="20" viewBox="0 0 20 20" fill="none" xmlns="http://www.w3.org/2000/svg">
<circle cx="10" cy="10" r="10" fill="white"/>
<path fill-rule="evenodd" clip-rule="evenodd" d="M4.5 9.97785V10.0228C4.505 11.3653 4.992 12.5948 5.796 13.5468C6.26512 14.1021 6.83905 14.5595 7.485 14.8928C8.26257 15.2939 9.12511 15.5022 10 15.5003C11.845 15.5003 13.4775 14.5923 14.475 13.1983C15.1429 12.2659 15.5014 11.1473 15.5 10.0003C15.5 8.37035 14.791 6.90535 13.664 5.89885C12.6143 4.95746 11.2418 4.45739 9.8325 4.50285C8.48197 4.54136 7.19344 5.07815 6.215 6.00985C5.60057 6.59284 5.12841 7.3093 4.835 8.10385C4.61501 8.70423 4.50164 9.33844 4.5 9.97785V9.97785ZM14.2405 11.5098C14.4085 11.0378 14.5 10.5298 14.5 10.0003C14.5016 8.82001 14.038 7.6866 13.2095 6.84585C12.8093 7.51074 12.272 8.08276 11.6335 8.52385C11.8675 9.13185 11.9945 9.78035 12.0025 10.4388C12.3845 10.5243 12.7635 10.6523 13.1335 10.8248C13.537 11.0128 13.907 11.2438 14.2405 11.5098V11.5098ZM11.9205 11.4478C12.6113 11.6247 13.2505 11.9624 13.786 12.4333C13.4052 13.0263 12.8903 13.5215 12.283 13.879C11.6757 14.2365 10.9928 14.4462 10.2895 14.4913C10.7894 14.0165 11.1954 13.4516 11.486 12.8263C11.6955 12.3768 11.839 11.9138 11.921 11.4478H11.9205ZM10.998 10.3113C10.9789 9.87141 10.8955 9.43663 10.7505 9.02085C9.94446 9.3833 9.06281 9.54571 8.18053 9.49426C7.29825 9.44282 6.44144 9.17903 5.683 8.72535C5.56119 9.13938 5.49956 9.56877 5.5 10.0003C5.4986 10.9361 5.79024 11.8488 6.334 12.6103C6.86202 11.8727 7.56402 11.277 8.37766 10.8759C9.1913 10.4748 10.0914 10.2809 10.998 10.3113V10.3113ZM7.0235 13.3753C7.44233 12.7247 8.02169 12.1929 8.70575 11.8312C9.3898 11.4696 10.1555 11.2902 10.929 11.3103C10.8595 11.6881 10.7421 12.0554 10.5795 12.4033C10.2048 13.2104 9.59813 13.8875 8.837 14.3483C8.16532 14.1688 7.54451 13.8357 7.0235 13.3753V13.3753ZM10 5.50035C10.8925 5.50035 11.724 5.76035 12.4235 6.20785C12.1145 6.75953 11.6921 7.23942 11.184 7.61585C10.6584 6.76034 9.90748 6.06598 9.0135 5.60885C9.33735 5.53654 9.66818 5.50016 10 5.50035V5.50035ZM8.403 6.42335C9.19286 6.79007 9.85869 7.3791 10.319 8.11835C9.73228 8.3781 9.09669 8.50907 8.45508 8.50243C7.81346 8.49579 7.18072 8.35169 6.5995 8.07985C6.41942 7.99587 6.24505 7.90016 6.0775 7.79335C6.45731 7.12011 7.00335 6.55548 7.6635 6.15335C7.9135 6.22085 8.1605 6.31035 8.4035 6.42335H8.403Z" fill="black"/>
</svg>
