<svg width="20" height="20" viewBox="0 0 20 20" fill="none" xmlns="http://www.w3.org/2000/svg">
<circle cx="10" cy="10" r="10" fill="white"/>
<path d="M14 13H13V8.625L10 10.5L7 8.625V13H6V7H6.6L10 9.125L13.4 7H14V13ZM14 6H6C5.445 6 5 6.445 5 7V13C5 13.2652 5.10536 13.5196 5.29289 13.7071C5.48043 13.8946 5.73478 14 6 14H14C14.2652 14 14.5196 13.8946 14.7071 13.7071C14.8946 13.5196 15 13.2652 15 13V7C15 6.73478 14.8946 6.48043 14.7071 6.29289C14.5196 6.10536 14.2652 6 14 6V6Z" fill="black"/>
</svg>
