<svg width="16" height="16" viewBox="0 0 16 16" fill="none" xmlns="http://www.w3.org/2000/svg">
<path d="M14.5 2.1875H1.5C1.22344 2.1875 1 2.41094 1 2.6875V10.4375C1 10.7141 1.22344 10.9375 1.5 10.9375H7.4375V12.6875H4.75C4.6125 12.6875 4.5 12.8 4.5 12.9375V13.6875C4.5 13.7563 4.55625 13.8125 4.625 13.8125H11.375C11.4438 13.8125 11.5 13.7563 11.5 13.6875V12.9375C11.5 12.8 11.3875 12.6875 11.25 12.6875H8.5625V10.9375H14.5C14.7766 10.9375 15 10.7141 15 10.4375V2.6875C15 2.41094 14.7766 2.1875 14.5 2.1875ZM13.875 9.8125H2.125V3.3125H13.875V9.8125Z" fill="white"/>
</svg>
