<svg width="16" height="16" viewBox="0 0 16 16" fill="none" xmlns="http://www.w3.org/2000/svg">
<path d="M13.6514 6C13.4735 6.00002 13.2974 6.03569 13.1336 6.10491C12.9697 6.17413 12.8214 6.27549 12.6974 6.403L12.5009 6.6055L12.3024 6.403C12.1783 6.27551 12.03 6.17418 11.8661 6.10498C11.7023 6.03579 11.5262 6.00014 11.3484 6.00014C11.1705 6.00014 10.9944 6.03579 10.8306 6.10498C10.6667 6.17418 10.5184 6.27551 10.3944 6.403C10.1414 6.66415 10 7.01345 10 7.377C10 7.74055 10.1414 8.08985 10.3944 8.351L12.5009 10.5L14.6054 8.351C14.8583 8.08985 14.9997 7.74055 14.9997 7.377C14.9997 7.01345 14.8583 6.66415 14.6054 6.403C14.4813 6.27549 14.333 6.17413 14.1692 6.10491C14.0053 6.03569 13.8292 6.00002 13.6514 6Z" fill="white"/>
<path d="M1 15H2V12.5C2.00079 11.8372 2.26444 11.2018 2.73311 10.7331C3.20178 10.2644 3.8372 10.0008 4.5 10H7.5C8.1628 10.0008 8.79822 10.2644 9.26689 10.7331C9.73556 11.2018 9.99921 11.8372 10 12.5V15H11V12.5C10.9989 11.5721 10.6299 10.6824 9.9737 10.0263C9.31756 9.37015 8.42793 9.00106 7.5 9H4.5C3.57207 9.00106 2.68244 9.37015 2.0263 10.0263C1.37015 10.6824 1.00106 11.5721 1 12.5V15Z" fill="white"/>
<path d="M6 2C6.49445 2 6.9778 2.14662 7.38893 2.42133C7.80005 2.69603 8.12048 3.08648 8.3097 3.54329C8.49892 4.00011 8.54843 4.50277 8.45196 4.98773C8.3555 5.47268 8.1174 5.91814 7.76777 6.26777C7.41814 6.6174 6.97268 6.8555 6.48773 6.95196C6.00277 7.04843 5.50011 6.99892 5.04329 6.8097C4.58648 6.62048 4.19603 6.30005 3.92133 5.88893C3.64662 5.4778 3.5 4.99445 3.5 4.5C3.5 3.83696 3.76339 3.20107 4.23223 2.73223C4.70108 2.26339 5.33696 2 6 2ZM6 1C5.30777 1 4.63108 1.20527 4.05551 1.58986C3.47993 1.97444 3.03133 2.52107 2.76642 3.16061C2.50152 3.80015 2.4322 4.50388 2.56725 5.18282C2.7023 5.86175 3.03564 6.48539 3.52513 6.97487C4.01461 7.46436 4.63825 7.7977 5.31719 7.93275C5.99612 8.0678 6.69985 7.99849 7.33939 7.73358C7.97894 7.46867 8.52556 7.02007 8.91015 6.4445C9.29473 5.86892 9.5 5.19223 9.5 4.5C9.5 3.57174 9.13125 2.6815 8.47487 2.02513C7.8185 1.36875 6.92826 1 6 1Z" fill="white"/>
</svg>
