<svg width="29" height="28" viewBox="0 0 29 28" fill="none" xmlns="http://www.w3.org/2000/svg">
<g filter="url(#filter0_d)">
<path d="M4.5 4V5.5C4.5 9.65 6.71 13.28 10 15.3V20H25V18C25 15.34 19.67 14 17 14H16.75C12 14 8 10 8 5.5V4H4.5ZM17 4C15.9391 4 14.9217 4.42143 14.1716 5.17157C13.4214 5.92172 13 6.93913 13 8C13 9.06087 13.4214 10.0783 14.1716 10.8284C14.9217 11.5786 15.9391 12 17 12C18.0609 12 19.0783 11.5786 19.8284 10.8284C20.5786 10.0783 21 9.06087 21 8C21 6.93913 20.5786 5.92172 19.8284 5.17157C19.0783 4.42143 18.0609 4 17 4Z" fill="white"/>
</g>
<defs>
<filter id="filter0_d" x="-1" y="0" width="32" height="32" filterUnits="userSpaceOnUse" color-interpolation-filters="sRGB">
<feFlood flood-opacity="0" result="BackgroundImageFix"/>
<feColorMatrix in="SourceAlpha" type="matrix" values="0 0 0 0 0 0 0 0 0 0 0 0 0 0 0 0 0 0 127 0"/>
<feOffset dy="4"/>
<feGaussianBlur stdDeviation="2"/>
<feColorMatrix type="matrix" values="0 0 0 0 0 0 0 0 0 0 0 0 0 0 0 0 0 0 0.25 0"/>
<feBlend mode="normal" in2="BackgroundImageFix" result="effect1_dropShadow"/>
<feBlend mode="normal" in="SourceGraphic" in2="effect1_dropShadow" result="shape"/>
</filter>
</defs>
</svg>
