<svg width="28" height="30" viewBox="0 0 28 30" fill="none" xmlns="http://www.w3.org/2000/svg">
<g filter="url(#filter0_d)">
<path d="M13.9999 6C12.957 6.00132 11.9571 6.41622 11.2196 7.1537C10.4821 7.89118 10.0672 8.89104 10.0659 9.934H12.0659C12.0659 8.867 12.9339 8 13.9999 8C15.0659 8 15.9339 8.867 15.9339 9.934C15.9339 10.532 15.4529 10.966 14.7179 11.56C14.4778 11.7481 14.2472 11.948 14.0269 12.159C13.0289 13.156 12.9999 14.215 12.9999 14.333V15H14.9999L14.9989 14.367C14.9999 14.351 15.0319 13.981 15.4399 13.574C15.5899 13.424 15.7789 13.274 15.9749 13.116C16.7539 12.485 17.9329 11.532 17.9329 9.934C17.9321 8.89106 17.5175 7.89104 16.7802 7.15347C16.0428 6.41591 15.0429 6.00106 13.9999 6ZM12.9999 16H14.9999V18H12.9999V16Z" fill="white"/>
<path d="M14 2C8.486 2 4 6.486 4 12C4 17.514 8.486 22 14 22C19.514 22 24 17.514 24 12C24 6.486 19.514 2 14 2ZM14 20C9.589 20 6 16.411 6 12C6 7.589 9.589 4 14 4C18.411 4 22 7.589 22 12C22 16.411 18.411 20 14 20Z" fill="white"/>
</g>
<defs>
<filter id="filter0_d" x="-2" y="0" width="32" height="32" filterUnits="userSpaceOnUse" color-interpolation-filters="sRGB">
<feFlood flood-opacity="0" result="BackgroundImageFix"/>
<feColorMatrix in="SourceAlpha" type="matrix" values="0 0 0 0 0 0 0 0 0 0 0 0 0 0 0 0 0 0 127 0"/>
<feOffset dy="4"/>
<feGaussianBlur stdDeviation="2"/>
<feColorMatrix type="matrix" values="0 0 0 0 0 0 0 0 0 0 0 0 0 0 0 0 0 0 0.25 0"/>
<feBlend mode="normal" in2="BackgroundImageFix" result="effect1_dropShadow"/>
<feBlend mode="normal" in="SourceGraphic" in2="effect1_dropShadow" result="shape"/>
</filter>
</defs>
</svg>
