<svg width="16" height="16" viewBox="0 0 16 16" fill="none" xmlns="http://www.w3.org/2000/svg">
<path d="M10.9221 5.51562H10.1893C10.0299 5.51562 9.87832 5.59219 9.78457 5.72344L7.32832 9.12969L6.21582 7.58594C6.12207 7.45625 5.97207 7.37813 5.81114 7.37813H5.07832C4.97676 7.37813 4.91739 7.49375 4.97676 7.57656L6.92364 10.2766C6.96963 10.3408 7.03026 10.3931 7.1005 10.4291C7.17074 10.4652 7.24857 10.4841 7.32754 10.4841C7.40651 10.4841 7.48434 10.4652 7.55458 10.4291C7.62483 10.3931 7.68546 10.3408 7.73145 10.2766L11.0221 5.71406C11.083 5.63125 11.0236 5.51562 10.9221 5.51562V5.51562Z" fill="white"/>
<path d="M8 1C4.13438 1 1 4.13438 1 8C1 11.8656 4.13438 15 8 15C11.8656 15 15 11.8656 15 8C15 4.13438 11.8656 1 8 1ZM8 13.8125C4.79063 13.8125 2.1875 11.2094 2.1875 8C2.1875 4.79063 4.79063 2.1875 8 2.1875C11.2094 2.1875 13.8125 4.79063 13.8125 8C13.8125 11.2094 11.2094 13.8125 8 13.8125Z" fill="white"/>
</svg>
