<svg width="24" height="24" viewBox="0 0 24 24" fill="none" xmlns="http://www.w3.org/2000/svg">
<path d="M14.835 16.6731L16.6731 14.835L19.4175 17.5922L22.1618 14.8479L23.9871 16.6731L21.2427 19.4175L24 22.1618L22.1618 24L19.4175 21.2427L16.6731 23.9871L14.8479 22.1618L17.5922 19.4175L14.835 16.6731ZM10.356 0C16.0777 0 20.712 2.31715 20.712 5.17799C20.712 8.03883 16.0777 10.356 10.356 10.356C4.6343 10.356 0 8.03883 0 5.17799C0 2.31715 4.6343 0 10.356 0ZM0 7.76699C0 10.6278 4.6343 12.945 10.356 12.945C16.0777 12.945 20.712 10.6278 20.712 7.76699V11.754L19.4175 11.6505C16.0647 11.6505 13.2039 13.7735 12.1165 16.7508L10.356 16.8285C4.6343 16.8285 0 14.5113 0 11.6505V7.76699ZM0 14.2395C0 17.1003 4.6343 19.4175 10.356 19.4175H11.6505C11.6505 20.7767 12 22.0583 12.6214 23.1715L10.356 23.301C4.6343 23.301 0 20.9838 0 18.123V14.2395Z" fill="white"/>
</svg>
