<svg width="24" height="24" viewBox="0 0 24 24" fill="none" xmlns="http://www.w3.org/2000/svg">
<path fill-rule="evenodd" clip-rule="evenodd" d="M23 0H16C15.447 0 15 0.448 15 1C15 1.552 15.447 2 16 2H20.586L13.293 9.293C12.902 9.684 12.902 10.316 13.293 10.707C13.684 11.098 14.316 11.098 14.707 10.707L22 3.414V8C22 8.552 22.447 9 23 9C23.553 9 24 8.552 24 8V1C24 0.448 23.553 0 23 0ZM10 13C9.744 13 9.488 13.098 9.293 13.293L2 20.586V16C2 15.447 1.553 15 1 15C0.447 15 0 15.447 0 16V23C0 23.553 0.447 24 1 24H8C8.553 24 9 23.553 9 23C9 22.447 8.553 22 8 22H3.414L10.707 14.707C11.098 14.316 11.098 13.684 10.707 13.293C10.512 13.098 10.256 13 10 13Z" fill="white"/>
</svg>
