<svg width="24" height="24" viewBox="0 0 24 24" fill="none" xmlns="http://www.w3.org/2000/svg">
<path fill-rule="evenodd" clip-rule="evenodd" d="M3 22H5V10H3V22ZM6 8H2C1.448 8 1 8.448 1 9V23C1 23.552 1.448 24 2 24H6C6.552 24 7 23.552 7 23V9C7 8.448 6.552 8 6 8ZM11 22H13V15H11V22ZM14 13H10C9.448 13 9 13.448 9 14V23C9 23.552 9.448 24 10 24H14C14.552 24 15 23.552 15 23V14C15 13.448 14.552 13 14 13ZM19 22H21V2H19V22ZM22 0H18C17.448 0 17 0.448 17 1V23C17 23.552 17.448 24 18 24H22C22.552 24 23 23.552 23 23V1C23 0.448 22.552 0 22 0Z" fill="white"/>
</svg>
