<svg width="32" height="32" viewBox="0 0 32 32" fill="none" xmlns="http://www.w3.org/2000/svg">
<path d="M14.6668 2.66671C14.6668 1.93071 15.2642 1.33337 16.0002 1.33337C16.7362 1.33337 17.3335 1.93071 17.3335 2.66671V8.00004C17.3335 8.73604 16.7362 9.33337 16.0002 9.33337C15.2642 9.33337 14.6668 8.73604 14.6668 8.00004V2.66671Z" fill="white"/>
<path d="M14.6668 24C14.6668 23.264 15.2642 22.6667 16.0002 22.6667C16.7362 22.6667 17.3335 23.264 17.3335 24V29.3334C17.3335 30.0694 16.7362 30.6667 16.0002 30.6667C15.2642 30.6667 14.6668 30.0694 14.6668 29.3334V24Z" fill="white"/>
<path d="M29.3335 14.6667H24.0002C23.2642 14.6667 22.6668 15.264 22.6668 16C22.6668 16.736 23.2642 17.3334 24.0002 17.3334H29.3335C30.0695 17.3334 30.6668 16.736 30.6668 16C30.6668 15.264 30.0695 14.6667 29.3335 14.6667Z" fill="white"/>
<path d="M8.00016 14.6667C8.73616 14.6667 9.3335 15.264 9.3335 16C9.3335 16.736 8.73616 17.3334 8.00016 17.3334H2.66683C1.93083 17.3334 1.3335 16.736 1.3335 16C1.3335 15.264 1.93083 14.6667 2.66683 14.6667H8.00016Z" fill="white"/>
<path d="M26.2758 7.61004C26.7971 7.08871 26.7971 6.24471 26.2758 5.72337C25.7558 5.20337 24.9118 5.20337 24.3904 5.72337L20.6198 9.49537C20.0984 10.0154 20.0984 10.8594 20.6198 11.3807C21.1398 11.902 21.9838 11.902 22.5051 11.3807L26.2758 7.61004Z" fill="white"/>
<path d="M5.72456 26.2767C5.20323 25.7554 5.20323 24.9114 5.72456 24.39L9.49523 20.6194C10.0166 20.098 10.8606 20.098 11.3806 20.6194C11.9019 21.1407 11.9019 21.9847 11.3806 22.5047L7.6099 26.2767C7.08856 26.7967 6.24456 26.7967 5.72456 26.2767Z" fill="white"/>
<path d="M7.60976 5.72377C7.08843 5.20244 6.24443 5.20244 5.72443 5.72377C5.2031 6.24511 5.2031 7.08911 5.72443 7.60911L9.4951 11.3811C10.0164 11.9011 10.8604 11.9011 11.3804 11.3811C11.9018 10.8598 11.9018 10.0158 11.3804 9.49444L7.60976 5.72377Z" fill="white"/>
<path d="M20.6198 20.6194C21.1398 20.098 21.9838 20.098 22.5051 20.6194L26.2758 24.39C26.7971 24.9114 26.7971 25.7554 26.2758 26.2767C25.7558 26.7967 24.9118 26.7967 24.3904 26.2767L20.6198 22.5047C20.0984 21.9847 20.0984 21.1407 20.6198 20.6194Z" fill="white"/>
</svg>
