<svg width="24" height="25" viewBox="0 0 24 25" fill="none" xmlns="http://www.w3.org/2000/svg">
<path d="M21.4997 14.2092L16.7592 12.0271V10.0571C16.2516 9.79847 15.7895 9.45883 15.3911 9.0515V12.0203L10.9927 14.0724V8.81208C11.075 8.80772 11.156 8.78921 11.2321 8.75736L14.2966 7.34821C14.1261 6.90904 14.0157 6.44885 13.9683 5.98011L10.9448 7.34821L7.45615 5.7749L10.9448 4.16738L13.9409 5.53548V5.48076C13.941 5.01851 14.0031 4.55837 14.1256 4.11266L11.2184 2.79928C11.1284 2.75761 11.0303 2.73602 10.9311 2.73602C10.8319 2.73602 10.7339 2.75761 10.6438 2.79928L5.51345 5.15925C5.39471 5.2142 5.29422 5.30206 5.2239 5.41239C5.15358 5.52272 5.11637 5.6509 5.1167 5.78174V12.034L0.396751 14.2092C0.278014 14.2642 0.177526 14.352 0.107205 14.4624C0.0368832 14.5727 -0.000321657 14.7009 2.09507e-06 14.8317V21.5217C-0.000321657 21.6526 0.0368832 21.7808 0.107205 21.8911C0.177526 22.0014 0.278014 22.0893 0.396751 22.1442L5.52713 24.5042C5.61717 24.5459 5.71521 24.5674 5.81443 24.5674C5.91365 24.5674 6.01168 24.5459 6.10173 24.5042L10.9448 22.2742L15.7879 24.5042C15.8779 24.5459 15.976 24.5674 16.0752 24.5674C16.1744 24.5674 16.2724 24.5459 16.3625 24.5042L21.4929 22.1442C21.6116 22.0893 21.7121 22.0014 21.7824 21.8911C21.8527 21.7808 21.8899 21.6526 21.8896 21.5217V14.8317C21.8905 14.7016 21.8543 14.574 21.7853 14.4637C21.7162 14.3534 21.6172 14.2652 21.4997 14.2092ZM2.34629 14.8317L5.84179 13.2174L9.33729 14.8249L5.81443 16.4256L2.34629 14.8317ZM5.81443 23.1292V17.8689C5.90964 17.8617 6.00256 17.8362 6.08805 17.7937L10.2471 15.8783V21.0771L5.81443 23.1292ZM12.5865 14.8317L16.082 13.2242L19.5775 14.8317L16.082 16.4256L12.5865 14.8317ZM16.1025 23.1292V17.8689C16.1891 17.8617 16.273 17.836 16.3488 17.7937L20.5078 15.8783V21.0771L16.1025 23.1292Z" fill="white"/>
<rect x="15.6162" y="7.09412" width="7.29654" height="1.82413" transform="rotate(-45 15.6162 7.09412)" fill="white"/>
<rect x="16.9062" y="1.93469" width="7.29654" height="1.82413" transform="rotate(45 16.9062 1.93469)" fill="white"/>
</svg>
