<svg width="34" height="38" viewBox="0 0 34 38" fill="none" xmlns="http://www.w3.org/2000/svg">
<path fill-rule="evenodd" clip-rule="evenodd" d="M17.7547 0.469972C17.3183 0.234985 16.6134 0.234985 16.2105 0.469972L1.57422 8.89592C1.13782 9.1309 0.802124 9.73515 0.802124 10.2387V27.1241C0.802124 27.6277 1.13782 28.2319 1.57422 28.4669L16.2105 36.9264C16.6469 37.1614 17.3519 37.1614 17.7547 36.9264L32.391 28.5005C32.8274 28.2655 33.1631 27.6613 33.1631 27.1577V10.2387C33.1631 9.73515 32.8274 9.1309 32.391 8.89592L17.7547 0.469972ZM15.2034 25.6807C15.2034 26.1842 15.2034 26.9899 15.2034 27.4934V31.9917C15.2034 32.4953 14.8342 32.6967 14.4313 32.4281L10.4701 30.2125C10.0337 29.9776 9.32878 29.5747 8.89237 29.3062L4.99831 27.057C4.56191 26.822 4.22621 26.2178 4.22621 25.7142V21.2159C4.22621 20.7124 4.22621 19.9067 4.22621 19.4032V14.9049C4.22621 14.4013 4.59548 14.1999 4.99831 14.4685L8.89237 16.7176C9.32878 16.9526 10.0337 17.3554 10.4701 17.624L14.3642 19.8731C14.8006 20.1081 15.1363 20.7124 15.1363 21.2159L15.2034 25.6807ZM17.4526 16.4155C17.0162 16.6505 16.3112 16.6505 15.8748 16.4155L11.7458 14.0656C11.3094 13.8306 10.6044 13.4278 10.168 13.1928L6.03897 10.8429C5.60256 10.608 5.60256 10.2051 6.03897 9.97014L10.168 7.62027C10.6044 7.38529 11.3094 6.98245 11.7458 6.74747L15.8748 4.3976C16.3112 4.16262 17.0162 4.16262 17.4526 4.3976L21.5816 6.74747C22.018 6.98245 22.723 7.38529 23.1594 7.62027L27.2885 9.97014C27.7249 10.2051 27.7249 10.608 27.2885 10.8429L23.1594 13.1928C22.723 13.4278 22.018 13.8306 21.5816 14.0656L17.4526 16.4155ZM23.8644 29.8097C23.428 30.0447 22.723 30.4475 22.3202 30.7161L18.3925 32.9652C17.9561 33.2002 17.6204 32.9988 17.6204 32.5288V27.997C17.6204 27.4934 17.6204 26.6877 17.6204 26.1842V21.6859C17.6204 21.1824 17.9561 20.9809 18.3925 21.2495L22.2866 23.4986C22.723 23.7336 23.428 24.1365 23.8308 24.405L27.7584 26.6542C28.1948 26.8892 28.1948 27.292 27.7584 27.5606L23.8644 29.8097ZM29.6383 17.7247C29.6383 18.2282 29.6383 19.0339 29.6383 19.5374V24.0693C29.6383 24.5729 29.3026 24.7743 28.8662 24.5057L24.9386 22.2566C24.5022 22.0216 23.7972 21.6188 23.3944 21.3502L19.4668 19.101C19.0304 18.8661 19.0304 18.4632 19.4668 18.1947L23.3944 15.9455C23.8308 15.7105 24.5358 15.3077 24.9386 15.0391L28.8662 12.79C29.3026 12.555 29.6383 12.7564 29.6383 13.2264V17.7247Z" fill="white"/>
</svg>
